PathFileType	4	(X/Y/Z)	C:/Users/opensim2020/Desktop/walking_exp_matlab/subject01_walking05_straight_02.trc																																																																																																																															
DataRate	CameraRate	NumFrames	NumMarkers	Units	OrigDataRate	OrigDataStartFrame	OrigNumFrames																																																																																																																											
100	100	5	43	mm	100	1527	205																																																																																																																											
Frame#	Time	LFHD			RFHD			LBHD			RBHD			C7			T10			CLAV			STRN			RBAK			LSHO			LUPA			LELB			LFRM			LWRA			LWRB			LFIN			RSHO			RUPA			RELB			RFRM			RWRA			RWRB			RFIN			LASI			RASI			LPSI			RPSI			LTHI			LKNE			LTIB			LANK			LHEE			LTOE			RTHI			RKNE			RTIB			RANK			RHEE			RTOE			*39			*40			*41			*42		
		X1	Y1	Z1	X2	Y2	Z2	X3	Y3	Z3	X4	Y4	Z4	X5	Y5	Z5	X6	Y6	Z6	X7	Y7	Z7	X8	Y8	Z8	X9	Y9	Z9	X10	Y10	Z10	X11	Y11	Z11	X12	Y12	Z12	X13	Y13	Z13	X14	Y14	Z14	X15	Y15	Z15	X16	Y16	Z16	X17	Y17	Z17	X18	Y18	Z18	X19	Y19	Z19	X20	Y20	Z20	X21	Y21	Z21	X22	Y22	Z22	X23	Y23	Z23	X24	Y24	Z24	X25	Y25	Z25	X26	Y26	Z26	X27	Y27	Z27	X28	Y28	Z28	X29	Y29	Z29	X30	Y30	Z30	X31	Y31	Z31	X32	Y32	Z32	X33	Y33	Z33	X34	Y34	Z34	X35	Y35	Z35	X36	Y36	Z36	X37	Y37	Z37	X38	Y38	Z38	X39	Y39	Z39	X40	Y40	Z40	X41	Y41	Z41	X42	Y42	Z42	X43	Y43	Z43
																																																																																																																																		
52	0.51	-601.74323	1662.69739	-1509.07715	-584.50873	1671.255	-1396.5448	-711.6651	1604.54419	-1495.49536	-697.35364	1612.11426	-1376.34644	-739.46417	1421.58972	-1452.97888	-771.34595	1127.55945	-1441.12317	-592.03052	1355.47937	-1451.69031	-547.69965	1202.76477	-1456.41016	-789.80481	1225.07275	-1375.46985	-657.90771	1383.16833	-1612.68677	-681.57745	1205.09021	-1704.66577	-676.27148	1053.24878	-1726.90186	-593.50708	984.81073	-1779.01538	-463.41769	939.617	-1799.1908	-509.57446	903.75641	-1813.59509	-436.44714	880.71417	-1847.95874	-657.99402	1384.23145	-1298.97437	-735.65356	1188.55713	-1203.63391	-747.96173	1065.14148	-1201.59814	-740.6554	945.76691	-1169.28687	-679.65356	817.06104	-1183.89075	-724.31439	826.07806	-1146.10974	-701.70709	742.98615	-1148.1947	-603.64844	919.55914	-1553.89758	-585.776	927.78802	-1337.6333	-785.53076	935.52234	-1482.75586	-771.42328	933.25323	-1337.57983	-703.28058	596.75092	-1606.38245	-748.53589	466.68936	-1596.29517	-874.63147	322.23056	-1603.3844	-992.9751	131.57733	-1557.24561	-1040.76636	126.70784	-1502.03918	-875.47681	36.75928	-1555.9408	-570.46857	603.11829	-1273.61072	-517.01782	457.45865	-1304.58887	-529.51129	282.43814	-1297.94873	-504.09988	76.04482	-1341.13318	-547.28333	35.22792	-1391.68726	-361.23099	47.11225	-1345.86243	-602.22614	1702.51624	-1418.72095	-1973.14001	1023.35406	3101.83813	-2012.46484	1021.95514	3140.50269	NaN	NaN	NaN
53	0.52	-591.76331	1663.28174	-1506.93481	-574.08246	1671.91785	-1394.47827	-701.79047	1605.59412	-1492.82129	-686.91431	1613.25317	-1373.72058	-729.06097	1422.27454	-1450.38098	-760.61725	1127.84973	-1439.12109	-582.05664	1356.23218	-1449.45557	-537.04517	1203.71667	-1454.40186	-779.57196	1225.45862	-1372.99902	-648.33289	1383.85046	-1610.49829	-673.07782	1205.5304	-1701.77454	-668.74091	1053.85083	-1724.3772	-586.40649	984.68933	-1776.38855	-456.83386	938.54688	-1796.50427	-503.18317	902.98615	-1810.99792	-430.25797	879.79407	-1845.47888	-647.81915	1384.21057	-1296.60376	-724.48438	1187.9646	-1201.34363	-736.33704	1064.43384	-1199.7749	-728.98462	945.01459	-1167.55701	-668.09131	816.32727	-1182.47998	-712.71741	825.25201	-1144.63013	-690.32666	742.3894	-1146.95508	-592.21399	919.72748	-1551.93835	-574.56714	928.45477	-1336.06995	-774.125	935.0246	-1481.5498	-760.44958	934.19501	-1336.39697	-688.23413	596.23914	-1605.73376	-731.88763	465.91809	-1596.55273	-862.35229	325.09991	-1603.89612	-986.56238	138.24602	-1558.88977	-1033.86853	135.99698	-1503.51721	-874.67767	36.73618	-1555.95825	-562.6261	603.50775	-1272.17224	-507.55005	457.88861	-1303.37537	-521.46576	282.68008	-1295.89832	-501.68362	75.9157	-1340.80249	-546.35864	35.86274	-1391.29858	-359.53674	44.74824	-1345.48608	-591.15778	1703.72437	-1416.55249	-1973.17932	1023.41919	3101.83423	-2012.54797	1021.98529	3140.66504	NaN	NaN	NaN
54	0.53	-581.76971	1663.91943	-1504.87622	-563.58807	1672.71045	-1392.50232	-691.91565	1606.5437	-1490.15479	-676.48285	1614.33679	-1371.09851	-718.95959	1422.96289	-1447.95679	-750.04437	1128.32739	-1437.05151	-572.06592	1357.11438	-1447.29565	-526.46606	1204.82397	-1452.50586	-769.2934	1225.92615	-1370.59546	-638.63574	1384.68823	-1608.18335	-664.76251	1206.29968	-1699.1615	-661.27698	1054.71118	-1721.70728	-579.66309	984.8642	-1773.65283	-450.67816	937.25549	-1793.64124	-497.31027	902.05487	-1808.12329	-424.53925	878.16858	-1842.5697	-637.87451	1384.46887	-1294.50452	-713.21173	1187.63574	-1199.15955	-724.57831	1064.07922	-1197.97632	-717.20276	944.77374	-1166.03076	-656.39703	815.99561	-1181.06262	-700.86365	824.88422	-1143.09937	-678.47491	741.95276	-1145.48499	-580.99603	920.23901	-1549.90454	-563.66412	929.59222	-1334.43152	-762.91284	934.94629	-1480.62244	-749.75061	935.53894	-1335.46643	-672.41278	595.81647	-1605.24988	-714.04889	465.07391	-1597.22058	-849.10242	328.71835	-1604.87952	-978.78278	145.55258	-1560.46875	-1025.22363	145.9054	-1504.77014	-873.93622	36.8004	-1555.95105	-552.9024	604.42163	-1271.5293	-498.55301	457.65717	-1302.19226	-514.7041	282.25458	-1293.94434	-500.48032	75.84215	-1340.74231	-545.63928	36.28357	-1391.18848	-358.76608	42.88249	-1344.37488	-580.37299	1704.70544	-1414.46069	-1973.05688	1023.37885	3101.85767	-2012.52124	1021.95667	3140.81348	NaN	NaN	NaN
55	0.54	-571.87769	1664.59314	-1502.77368	-553.19806	1673.44543	-1390.49048	-682.01349	1607.43262	-1487.57959	-666.08453	1615.34241	-1368.65173	-709.10376	1423.49463	-1445.56653	-739.64984	1128.95374	-1435.00342	-561.99817	1357.96106	-1445.11267	-515.97473	1206.02258	-1450.69885	-759.01483	1226.38916	-1368.37244	-628.9895	1385.68823	-1605.89685	-656.56964	1207.16663	-1696.42078	-653.96692	1055.79663	-1718.96851	-573.24078	985.1886	-1770.91296	-444.8786	935.69525	-1790.64526	-491.93387	901.07629	-1805.21912	-419.37207	876.41376	-1839.63586	-627.99591	1384.98706	-1292.3158	-701.78467	1187.5929	-1197.0271	-712.71271	1064.06213	-1196.14746	-705.09912	944.849	-1164.30408	-644.31976	816.12958	-1179.52393	-688.68677	824.9519	-1141.45264	-666.48761	741.98627	-1144.06934	-569.75763	920.94513	-1547.65454	-553.11316	930.87488	-1332.55884	-751.77991	935.22784	-1479.74634	-739.37921	937.336	-1334.67957	-655.82477	595.12823	-1604.93433	-695.11554	464.27487	-1598.33655	-834.64862	332.62238	-1606.23218	-969.36078	153.13721	-1561.91577	-1014.58636	156.07202	-1505.55249	-872.54358	36.46313	-1555.24609	-541.90741	605.57703	-1270.40796	-490.34027	457.09567	-1301.05103	-509.46289	281.16714	-1292.05847	-499.51047	75.49533	-1340.57556	-545.27484	36.54232	-1390.90576	-357.92941	41.66759	-1344.37878	-570.15619	1705.19153	-1412.67639	-1973.10278	1023.29797	3101.92236	-2012.51611	1022.01733	3140.6311	NaN	NaN	NaN
56	0.55	-561.87738	1665.2821	-1500.63599	-542.85602	1674.23206	-1388.49866	-672.08508	1608.32336	-1485.10083	-655.76453	1616.27869	-1366.22461	-699.39063	1423.92529	-1443.17444	-729.37341	1129.63391	-1433.12378	-552.00018	1358.94226	-1443.12463	-505.71939	1207.04065	-1448.90723	-748.75635	1226.88965	-1366.21143	-619.3476	1386.76404	-1603.58716	-648.29535	1208.19751	-1693.86975	-646.77802	1056.93579	-1716.12244	-567.0141	985.31909	-1767.90369	-439.41544	933.79858	-1787.48743	-486.95792	899.8266	-1802.07458	-414.7023	874.10834	-1836.41125	-617.84827	1385.60608	-1290.15491	-690.47406	1187.87048	-1195.0105	-700.73438	1064.33557	-1194.29114	-692.81854	945.22351	-1162.41858	-631.93384	816.5307	-1177.84399	-676.14691	825.28369	-1139.61926	-653.95844	742.18506	-1142.54175	-558.79596	921.80164	-1545.30042	-542.63129	932.42114	-1330.46802	-740.93652	935.76111	-1478.94519	-729.2113	939.21503	-1333.9978	-638.45294	594.39606	-1604.77222	-675.44226	463.12228	-1599.37769	-818.65179	336.19852	-1607.32227	-958.57397	160.87541	-1563.41345	-1002.23596	166.70706	-1506.27649	-871.80212	36.74601	-1554.71118	-531.06232	606.19653	-1268.8916	-482.9859	456.43668	-1299.79358	-505.00464	280.49042	-1290.68896	-498.50516	75.48097	-1340.60913	-545.08472	36.64996	-1390.63477	-357.17108	40.60648	-1345.16724	-559.59009	1706.40601	-1410.50916	-1973.13464	1023.38031	3101.76245	-2012.55542	1022.00702	3140.47192	NaN	NaN	NaN
